#define u8g2_satellite_width 16
#define u8g2_satellite_height 15
static unsigned char u8g2_satellite_bits[] = {
0x08, 0x0E, 0x0C, 0x1A, 0x26, 0x32,
0x33, 0x63, 0x99, 0x43, 0xcc, 0x7E, 0x64, 0x0c,
0x30, 0x06, 0x18, 0x13, 0x8c, 0x19, 0xd8, 0x4c,
0x70, 0x66, 0x20, 0x32, 0x00, 0x18, 0x00, 0x08
};  //Sattelite icon