#define satteliteicon_width 16
#define satteliteicon_height 15
static unsigned char satteliteicon_bits[] = {
   0x08, 0x61, 0x9c, 0x73, 0xb6, 0x3e, 0xe3, 0x1c, 0xc1, 0x18, 0xe3, 0x30,
   0xb6, 0x61, 0x1c, 0x3f, 0x0c, 0x0e, 0x06, 0x1b, 0x82, 0x31, 0xc2, 0x60,
   0xe6, 0x31, 0x3e, 0x1b, 0x00, 0x0e };
